<svg xmlns="http://www.w3.org/2000/svg" width="200" height="200" aria-hidden="true" data-bbox="63.5 20 73 160.1" data-type="color" viewBox="63.5 20 73 160.1"><defs><style>#comp-kylb1kpl svg [data-color=&quot;1&quot;]{fill:#fff6eb}</style></defs><path fill="#fff6eb" d="M100 20c-20.1 0-36.5 16.4-36.5 36.5v87.1c0 20.1 16.4 36.5 36.5 36.5s36.5-16.4 36.5-36.5V56.5c0-20.1-16.4-36.5-36.5-36.5zm35.2 123.5c0 19.4-15.8 35.2-35.2 35.2s-35.2-15.8-35.2-35.2v-87c0-19.4 15.8-35.2 35.2-35.2s35.2 15.8 35.2 35.2v87z" data-color="1"/><path fill="#fff6eb" d="M118.9 66.1c-.3-1.5 1.1-3 3.1-3.4h.3l1.3-.1-.7-.9c-2.3-2.9-6.7-4.3-11.2-3.5l-1.2.3c0-.5.1-.9.1-1.3 0-4.2-1.8-8-4.6-10l-1.1-.8.1 1.3c0 2-1.3 3.6-2.8 3.6s-2.8-1.6-2.8-3.6v-.3l.1-1.3-1 .6c-3 1.6-5.1 5.3-5.3 9.6-3.7-1.1-7.6-.7-10.2 1.1l-.9.7 1.1.4c1.9.7 3 2.4 2.5 3.9-.2.7-.8 1.2-1.6 1.5-.8.3-1.8.3-2.8-.1-.1 0-.2-.1-.2-.1l-1.2-.6.2 1.2c.5 3.4 3.3 6.6 7.2 8.3-2.3 3.1-3.3 6.9-2.4 10l.3 1.4.8-1.1c1.3-1.5 3.3-2 4.5-1 .6.5.8 1.2.8 2 0 .9-.4 1.8-1 2.6l-.2.2-1.1.7 1.1.2c3.4.7 7.4-.8 10.2-3.9 2.1 3.3 5.3 5.4 8.6 5.7l1.1.1-.6-1c-1-1.7-.7-3.8.6-4.5.6-.4 1.4-.4 2.2-.1.8.3 1.6 1 2.1 1.8 0 .1.1.2.1.2l.6 1.2.6-1c1.8-2.9 1.7-7.2-.2-11 3.8-.9 6.9-3.2 8.3-6.1l.5-1.1-1.2.2c-2 .4-3.8-.5-4.1-2zm-4.5 8-.9.2.5.8c1.8 3.2 2.2 6.8 1.1 9.4-.6-.8-1.4-1.5-2.3-1.8-1.1-.4-2.3-.4-3.3.2-1.6.9-2.2 3.1-1.5 5.2-2.7-.6-5.2-2.7-6.9-5.6l-.5-1-.6.9c-2.4 2.8-5.6 4.4-8.5 4.3.6-.9.9-1.8.9-2.8 0-1.2-.4-2.3-1.3-3-1.4-1.2-3.7-1-5.4.3-.3-2.7.7-5.8 2.8-8.4l.6-.8-.8-.3c-3.4-1.3-6-3.7-6.9-6.5 1 .2 2 .2 2.9-.1 1.2-.4 2-1.2 2.4-2.2.6-1.8-.3-3.8-2.1-5 2.4-1.2 5.7-1.3 8.9-.1l.8.3v-.9c0-3.7 1.4-7 3.8-8.7.3 2.4 2 4.2 4 4.2 1.9 0 3.5-1.6 3.9-3.7 2 1.9 3.2 4.9 3.2 8.3 0 .7-.1 1.4-.2 2.1l-.2 1 1-.3c.6-.2 1.3-.4 2-.5 3.6-.6 7.1.2 9.3 2.2-2.3.7-3.8 2.7-3.4 4.7.3 1.8 2.1 3.1 4.3 3.2-1.4 2.1-4.3 3.8-7.6 4.4z" data-color="1"/><path fill="#fff6eb" d="M102.7 60v5.8h-1.3V60h1.3zM97.973 61.08l3.41 4.692-1.052.764-3.41-4.692 1.052-.764z" data-color="1"/><path fill="#fff6eb" d="m94.808 64.641 5.516 1.792-.401 1.237-5.516-1.793.401-1.236zM99.752 67.737l.401 1.237-5.515 1.792-.402-1.236 5.516-1.793zM100.18 69.02l1.051.765-3.41 4.69-1.052-.764 3.41-4.69z" data-color="1"/><path fill="#fff6eb" d="M102.5 69.8v5.8h-1.3v-5.8h1.3zM103.699 69.167l3.41 4.692-1.053.764-3.409-4.692 1.052-.764z" data-color="1"/><path fill="#fff6eb" d="m104.034 67.923 5.516 1.792-.401 1.236-5.517-1.792.402-1.236zM109.262 64.942l.401 1.236-5.517 1.79-.401-1.237 5.517-1.79zM106.146 61.196l1.051.764-3.41 4.691-1.052-.764 3.41-4.691zM111.2 122.7l-3.4-11.9-9.2 8.3-12-3 2.6 12.1-8.6 8.9 11.7 3.8 3.4 11.9 9.2-8.3 12 3-2.6-12.1 8.6-8.9-11.7-3.8zm-1.2.3-7.1 6.9 1.7-6.2-1.2-.3-1.5 5.5-2.3-8.8 7.6-6.9 2.8 9.8zm-21.6-5.1 10 2.5 2.5 9.6-4.5-4.6-.9.9 4.3 4.4-9.3-2.6-2.1-10.2zM83 136.5l7.1-7.4 8.8 2.5-4.1 1.1.3 1.2 4.9-1.3-7.3 7.1-9.7-3.2zm10.7 4.1 6.8-6.5-1.3 4.7 1.2.3 1.5-5.5 2.6 9.7-7.9 7.2-2.9-9.9zm21.7 5.2-9.6-2.4-2.4-9.1 2.4 2.5.9-.9-2.7-2.8 9.3 2.6 2.1 10.1zm-1.8-11.3-9.9-2.8 4.7-1.3-.3-1.2-3.6 1 6.4-6.2 9.8 3.2-7.1 7.3z" data-color="1"/></svg>