<svg xmlns="http://www.w3.org/2000/svg" width="200" height="200" aria-hidden="true" data-bbox="63.6 20 72.8 159.9" data-type="color" viewBox="63.6 20 72.8 159.9"><defs><style>#comp-kybh43s71 svg [data-color=&quot;1&quot;]{fill:#fff6eb}</style></defs><path fill="#fff6eb" d="M100 20c-20.1 0-36.4 16.4-36.4 36.4v87.1c0 20.1 16.4 36.4 36.4 36.4 20.1 0 36.4-16.4 36.4-36.4V56.4c0-20-16.3-36.4-36.4-36.4zm35.3 123.6c0 19.5-15.8 35.3-35.3 35.3s-35.3-15.8-35.3-35.3V56.4c0-19.5 15.8-35.3 35.3-35.3s35.3 15.8 35.3 35.3v87.2z" data-color="1"/><path fill="#fff6eb" d="M100.6 144.8V49.7h-1.2v95.1c-2.1-4.8-7-8.2-12.6-8.2v1.2c6.9 0 12.6 5.6 12.6 12.6h1.2c0-6.9 5.6-12.6 12.6-12.6v-1.2c-5.7-.1-10.5 3.3-12.6 8.2z" data-color="1"/></svg>