<svg xmlns="http://www.w3.org/2000/svg" width="200" height="200" aria-hidden="true" data-bbox="63.5 20 73 160.1" data-type="color" viewBox="63.5 20 73 160.1"><defs><style>#comp-kyl7lgbj1 svg [data-color=&quot;1&quot;]{fill:#fff6eb}</style></defs><path fill="#fff6eb" d="M115.3 120.3c-2.8 0-4.3 1.4-5.6 2.7-1.3 1.2-2.4 2.3-4.7 2.3-2.3 0-3.4-1.1-4.7-2.3-1.3-1.3-2.7-2.7-5.6-2.7-2.8 0-4.3 1.4-5.6 2.7-1.3 1.2-2.4 2.3-4.7 2.3-2.3 0-3.4-1.1-4.7-2.3-1.3-1.3-2.7-2.7-5.6-2.7v1.3c2.3 0 3.4 1.1 4.7 2.3 1.3 1.3 2.7 2.7 5.6 2.7 2.8 0 4.3-1.4 5.6-2.7 1.3-1.2 2.4-2.3 4.7-2.3 2.3 0 3.4 1.1 4.7 2.3 1.3 1.3 2.7 2.7 5.6 2.7 2.8 0 4.3-1.4 5.6-2.7 1.3-1.2 2.4-2.3 4.7-2.3 2.3 0 3.4 1.1 4.7 2.3 1.3 1.3 2.7 2.7 5.6 2.7v-1.3c-2.3 0-3.4-1.1-4.7-2.3-1.3-1.3-2.8-2.7-5.6-2.7zM115.3 131.2c-2.8 0-4.3 1.4-5.6 2.7-1.3 1.2-2.4 2.3-4.7 2.3-2.3 0-3.4-1.1-4.7-2.3-1.3-1.3-2.7-2.7-5.6-2.7-2.8 0-4.3 1.4-5.6 2.7-1.3 1.2-2.4 2.3-4.7 2.3-2.3 0-3.4-1.1-4.7-2.3-1.3-1.3-2.7-2.7-5.6-2.7v1.3c2.3 0 3.4 1.1 4.7 2.3 1.3 1.3 2.7 2.7 5.6 2.7 2.8 0 4.3-1.4 5.6-2.7 1.3-1.2 2.4-2.3 4.7-2.3 2.3 0 3.4 1.1 4.7 2.3 1.3 1.3 2.7 2.7 5.6 2.7 2.8 0 4.3-1.4 5.6-2.7 1.3-1.2 2.4-2.3 4.7-2.3 2.3 0 3.4 1.1 4.7 2.3 1.3 1.3 2.7 2.7 5.6 2.7v-1.3c-2.3 0-3.4-1.1-4.7-2.3-1.3-1.3-2.8-2.7-5.6-2.7zM115.3 142.1c-2.8 0-4.3 1.4-5.6 2.7-1.3 1.2-2.4 2.3-4.7 2.3-2.3 0-3.4-1.1-4.7-2.3-1.3-1.3-2.7-2.7-5.6-2.7-2.8 0-4.3 1.4-5.6 2.7-1.3 1.2-2.4 2.3-4.7 2.3-2.3 0-3.4-1.1-4.7-2.3-1.3-1.3-2.7-2.7-5.6-2.7v1.3c2.3 0 3.4 1.1 4.7 2.3 1.3 1.3 2.7 2.7 5.6 2.7 2.8 0 4.3-1.4 5.6-2.7 1.3-1.2 2.4-2.3 4.7-2.3 2.3 0 3.4 1.1 4.7 2.3 1.3 1.3 2.7 2.7 5.6 2.7 2.8 0 4.3-1.4 5.6-2.7 1.3-1.2 2.4-2.3 4.7-2.3 2.3 0 3.4 1.1 4.7 2.3 1.3 1.3 2.7 2.7 5.6 2.7v-1.3c-2.3 0-3.4-1.1-4.7-2.3-1.3-1.3-2.8-2.7-5.6-2.7z" data-color="1"/><path fill="#fff6eb" d="M100 20c-20.1 0-36.5 16.4-36.5 36.5v87.1c0 20.1 16.4 36.5 36.5 36.5s36.5-16.4 36.5-36.5V56.5c0-20.1-16.4-36.5-36.5-36.5zm35.2 123.5c0 19.4-15.8 35.2-35.2 35.2s-35.2-15.8-35.2-35.2v-87c0-19.4 15.8-35.2 35.2-35.2s35.2 15.8 35.2 35.2v87z" data-color="1"/><path fill="#fff6eb" d="M86.5 67.6v5.3h-5.9v1.3h5.9V97h1.3V74.1h24.1v22.8h1.3V74.1h5.9v-1.3h-5.9v-5.3h6.3l3.3-6.7H77.3l2.9 6.7c0 .1 6.3.1 6.3.1zm1.2 5.3v-5.3H96v5.3h-8.3zm9.6 0v-5.3h5.1v5.3h-5.1zm14.7 0h-8.3v-5.3h8.3v5.3zm8.8-10.8-2.1 4.2H81l-1.8-4.2h41.6z" data-color="1"/></svg>