<svg xmlns="http://www.w3.org/2000/svg" width="200" height="200" aria-hidden="true" data-bbox="63.5 20 73 160.1" data-type="color" viewBox="63.5 20 73 160.1"><defs><style>#comp-lozislow svg [data-color=&quot;1&quot;]{fill:#fff6eb}</style></defs><path fill="#fff6eb" d="M100 20c-20.1 0-36.5 16.4-36.5 36.5v87.1c0 20.1 16.4 36.5 36.5 36.5s36.5-16.4 36.5-36.5V56.5c0-20.1-16.4-36.5-36.5-36.5zm35.2 123.5c0 19.4-15.8 35.2-35.2 35.2s-35.2-15.8-35.2-35.2v-87c0-19.4 15.8-35.2 35.2-35.2s35.2 15.8 35.2 35.2v87z" data-color="1"/><path fill="#fff6eb" d="M81.8 125.4c0 6.9 3.9 13 9.7 16v4.7h16.7v-4.7c5.7-3 9.7-9 9.7-16v-.6H81.8v.6zm25.2 19.5H92.8V142c2.2.9 4.6 1.5 7.1 1.5s4.9-.5 7.1-1.5v2.9zm9.7-18.9c-.3 9-7.7 16.2-16.8 16.2S83.4 135 83.1 126h33.6zM117.3 105.3v1.3H82.5v-1.3h34.8zM117.3 101v1.3H82.5V101h34.8zM94.2 116.6c0 2.7 2.2 5 5 5s5-2.2 5-5c0-2.7-2.2-5-5-5s-5 2.3-5 5zm8.7 0c0 2.1-1.7 3.7-3.7 3.7-2.1 0-3.7-1.7-3.7-3.7 0-2.1 1.7-3.7 3.7-3.7s3.7 1.7 3.7 3.7zM111.9 63.7c-1.8-2.9-3.8-5.8-6.1-8.3-.2-.3-2.2-3.1-5.7-3.1s-5.5 2.6-5.8 3.1c-2.1 2.5-4.1 5.1-5.8 7.9-2.3 3.7-4.2 7.7-5.7 11.8-.1.1-1.8 3.9.3 6.9 1 1.4 2.4 2.1 2.6 2.2.8.4 1.8.5 2.6.5h23.5c.8 0 2-.1 3.3-.9.3-.2 1.3-.8 2-1.9 1.8-2.9.3-6.4.1-6.7-1.4-4-3.2-7.9-5.3-11.5zm-4.3 19.7H93.1v-8.8c0-.4.3-.7.7-.7h13.1c.4 0 .7.3.7.7v8.8zm8.4-2.2c-.6.9-1.4 1.4-1.6 1.5-1.1.7-2.2.7-2.8.7h-2.7v-8.8c0-1.1-.9-2-2-2H93.8c-1.1 0-2 .9-2 2v8.8h-3.5c-.7 0-1.4-.1-2.1-.4-.1 0-1.3-.6-2.1-1.7-1.6-2.4-.2-5.6-.2-5.7 1.4-4 3.3-8 5.6-11.6 1.7-2.7 3.6-5.3 5.7-7.7l.1-.1c.1-.1 1.7-2.6 4.7-2.6s4.6 2.4 4.8 2.6c2.2 2.5 4.2 5.3 6 8.2 2.1 3.5 3.9 7.3 5.2 11.3.1 0 1.5 3.2 0 5.5z" data-color="1"/></svg>