<svg xmlns="http://www.w3.org/2000/svg" width="200" height="200" aria-hidden="true" data-bbox="63.5 20 73 160.1" data-type="color" viewBox="63.5 20 73 160.1"><defs><style>#comp-kylb2622 svg [data-color=&quot;1&quot;]{fill:#fff6eb}</style></defs><path fill="#fff6eb" d="M100 20c-20.1 0-36.5 16.4-36.5 36.5v87.1c0 20.1 16.4 36.5 36.5 36.5s36.5-16.4 36.5-36.5V56.5c0-20.1-16.4-36.5-36.5-36.5zm35.2 123.5c0 19.4-15.8 35.2-35.2 35.2s-35.2-15.8-35.2-35.2v-87c0-19.4 15.8-35.2 35.2-35.2s35.2 15.8 35.2 35.2v87z" data-color="1"/><path fill="#fff6eb" d="M100.3 51.9c-8.8 0-17 4.1-22.4 11.4l-.4.5 22.8 18.4 22.1-19.3-.4-.5c-5.4-6.7-13.3-10.5-21.7-10.5zm12.9 4.7-11.8 21.3 3.8-24.3c2.8.6 5.5 1.6 8 3zm-9.2-3.2-3.8 24.3-4.7-24.1c1.6-.3 3.2-.4 4.8-.4 1.2-.1 2.5 0 3.7.2zM99 78 86.4 57.1c2.4-1.5 5.1-2.6 7.9-3.3L99 78zM85.3 57.8l12.6 20.8-18.7-15.1c1.8-2.2 3.9-4.2 6.1-5.7zm14.9 22.7-.5-.4.9-.2v-.1l.4.1-.8.6zm1-1.1.2.1-.2.2v-.3zm1.3-.9 11.8-21.3c2.3 1.5 4.5 3.3 6.3 5.5l-18.1 15.8zM114.3 120.8h-3.9v-7.7c2.7-.3 4.9-2.6 4.9-5.4H114c0 2.3-1.9 4.2-4.2 4.2h-4.7v-7.3H94.8v7.3h-4.7c-2.3 0-4.2-1.9-4.2-4.2h-1.3c0 2.8 2.1 5.1 4.9 5.4v7.7h-3.9c-3.2 0-5.8-2.6-5.8-5.8h-1.3c0 3.7 2.8 6.7 6.4 7v25.1H115V122c3.6-.3 6.4-3.3 6.4-7h-1.3c0 3.2-2.6 5.8-5.8 5.8zM96 105.9h7.9v6.1H96v-6.1zm-5.3 7.3h18.6v7.6H90.7v-7.6zm4.1 32.7V127h10.4v18.9H94.8zm18.9 0h-7.3v-20.1H93.5v20.1h-7.3v-23.8h27.6v23.8h-.1z" data-color="1"/></svg>